{
	"asset":{
		"generator":"Khronos glTF Blender I/O v5.2.39",
		"version":"2.0"
	},
	"extensionsUsed":[
		"KHR_materials_specular"
	],
	"scene":0,
	"scenes":[
		{
			"name":"Scene",
			"nodes":[
				0
			]
		}
	],
	"nodes":[
		{
			"mesh":0,
			"name":"alexLow.003",
			"rotation":[
				0.7071068286895752,
				0,
				0,
				0.7071068286895752
			],
			"translation":[
				12.843480110168457,
				5.208401203155518,
				0
			]
		}
	],
	"animations":[
		{
			"channels":[
				{
					"sampler":0,
					"target":{
						"node":0,
						"path":"translation"
					}
				},
				{
					"sampler":1,
					"target":{
						"node":0,
						"path":"rotation"
					}
				},
				{
					"sampler":2,
					"target":{
						"node":0,
						"path":"scale"
					}
				}
			],
			"name":"alexLow.003Action",
			"samplers":[
				{
					"input":4,
					"interpolation":"STEP",
					"output":5
				},
				{
					"input":6,
					"interpolation":"LINEAR",
					"output":7
				},
				{
					"input":4,
					"interpolation":"STEP",
					"output":8
				}
			]
		}
	],
	"materials":[
		{
			"doubleSided":true,
			"extensions":{
				"KHR_materials_specular":{
					"specularFactor":0
				}
			},
			"name":"initialShadingGroup.003",
			"pbrMetallicRoughness":{
				"baseColorFactor":[
					0.800000011920929,
					0.800000011920929,
					0.800000011920929,
					1
				],
				"metallicFactor":0
			}
		}
	],
	"meshes":[
		{
			"name":"alexLow.003",
			"primitives":[
				{
					"attributes":{
						"POSITION":0,
						"NORMAL":1,
						"TEXCOORD_0":2
					},
					"indices":3,
					"material":0
				}
			]
		}
	],
	"accessors":[
		{
			"bufferView":0,
			"componentType":5126,
			"count":4155,
			"max":[
				1.256143569946289,
				1.5481805801391602,
				1.1464879512786865
			],
			"min":[
				-1.1234959363937378,
				-1.9681237936019897,
				-3.7769243717193604
			],
			"type":"VEC3"
		},
		{
			"bufferView":1,
			"componentType":5126,
			"count":4155,
			"type":"VEC3"
		},
		{
			"bufferView":2,
			"componentType":5126,
			"count":4155,
			"type":"VEC2"
		},
		{
			"bufferView":3,
			"componentType":5123,
			"count":4167,
			"type":"SCALAR"
		},
		{
			"bufferView":4,
			"componentType":5126,
			"count":2,
			"max":[
				10
			],
			"min":[
				0.041666666666666664
			],
			"type":"SCALAR"
		},
		{
			"bufferView":5,
			"componentType":5126,
			"count":2,
			"type":"VEC3"
		},
		{
			"bufferView":6,
			"componentType":5126,
			"count":240,
			"max":[
				10
			],
			"min":[
				0.041666666666666664
			],
			"type":"SCALAR"
		},
		{
			"bufferView":7,
			"componentType":5126,
			"count":240,
			"type":"VEC4"
		},
		{
			"bufferView":8,
			"componentType":5126,
			"count":2,
			"type":"VEC3"
		}
	],
	"bufferViews":[
		{
			"buffer":0,
			"byteLength":49860,
			"byteOffset":0,
			"target":34962
		},
		{
			"buffer":0,
			"byteLength":49860,
			"byteOffset":49860,
			"target":34962
		},
		{
			"buffer":0,
			"byteLength":33240,
			"byteOffset":99720,
			"target":34962
		},
		{
			"buffer":0,
			"byteLength":8334,
			"byteOffset":132960,
			"target":34963
		},
		{
			"buffer":0,
			"byteLength":8,
			"byteOffset":141296
		},
		{
			"buffer":0,
			"byteLength":24,
			"byteOffset":141304
		},
		{
			"buffer":0,
			"byteLength":960,
			"byteOffset":141328
		},
		{
			"buffer":0,
			"byteLength":3840,
			"byteOffset":142288
		},
		{
			"buffer":0,
			"byteLength":24,
			"byteOffset":146128
		}
	],
	"buffers":[
		{
			"byteLength":146152,
			"uri":"alex%20cut_.bin"
		}
	]
}
